<svg version="1.1" id="Layer_1" xmlns="http://www.w3.org/2000/svg" xmlns:xlink="http://www.w3.org/1999/xlink" x="0px" y="0px"
	 width="100%" viewBox="0 0 900 395" enable-background="new 0 0 900 395" xml:space="preserve">
<path fill="#FEFEFE" opacity="1.000000" stroke="none" 
	d="
M554.000000,396.000000 
	C369.333344,396.000000 185.166672,396.000000 1.000000,396.000000 
	C1.000000,264.333344 1.000000,132.666672 1.000000,1.000000 
	C301.000000,1.000000 601.000000,1.000000 901.000000,1.000000 
	C901.000000,132.666672 901.000000,264.333344 901.000000,396.000000 
	C785.500000,396.000000 670.000000,396.000000 554.000000,396.000000 
M564.994690,150.322418 
	C564.997803,149.862442 565.000854,149.402466 565.735413,149.084167 
	C566.438965,149.322617 567.142578,149.561066 568.070679,150.220779 
	C568.708618,150.181992 569.346558,150.143204 570.739380,150.013748 
	C571.498169,150.039658 572.256897,150.065552 573.353577,150.533325 
	C574.287231,150.287781 575.220886,150.042236 576.992981,149.544388 
	C590.197144,146.285492 603.441406,143.178864 616.589844,139.708725 
	C624.084045,137.730850 628.427673,139.143387 631.685547,146.181442 
	C634.405273,152.056564 636.257324,158.339233 639.065369,164.165863 
	C642.146606,170.559418 645.367065,177.007248 649.483765,182.744873 
	C653.314880,188.084488 659.119873,189.929901 664.860901,189.134338 
	C654.095398,182.910828 650.191956,172.815994 647.649658,161.888260 
	C645.502502,152.658813 643.353821,143.429657 641.170105,134.208832 
	C638.863892,124.470604 636.109131,121.807777 626.017883,120.703827 
	C621.770386,120.239159 617.403687,121.001343 613.107117,120.822571 
	C599.842712,120.270645 586.590149,119.428848 573.325012,118.899948 
	C560.895264,118.404358 555.465149,123.721565 554.789124,135.787735 
	C554.028137,135.444809 553.267090,135.101883 552.506104,134.758957 
	C552.322510,135.814972 552.138977,136.870972 551.927429,138.711731 
	C548.437256,148.023880 545.340515,157.508499 541.354431,166.603271 
	C536.678833,177.271271 528.033508,183.150696 516.553650,185.321396 
	C502.391602,187.999268 491.781403,196.193375 483.643951,207.816238 
	C482.795471,209.028137 482.333099,210.510345 481.691589,211.867142 
	C482.019073,212.204437 482.346527,212.541733 482.673981,212.879013 
	C485.498138,211.673447 488.256531,210.271606 491.158813,209.299362 
	C499.614502,206.466827 508.067535,203.593369 516.643738,201.167801 
	C520.928955,199.955826 525.514160,199.851944 529.905762,198.961166 
	C554.641602,193.943771 574.010681,175.479980 578.416626,153.448334 
	C573.940552,152.636002 569.467407,151.824203 564.994690,150.322418 
M741.841614,147.065292 
	C751.854431,150.592712 761.678101,154.869064 771.928101,157.457123 
	C784.615417,160.660599 797.688904,154.075592 803.574524,142.867783 
	C804.333862,141.421829 804.584106,139.708572 805.434814,136.926773 
	C802.015625,137.892197 799.777222,138.294128 797.723450,139.142639 
	C787.106750,143.528885 777.211426,142.436737 768.052246,135.451401 
	C759.182617,128.686859 750.308044,121.927475 741.518799,115.059364 
	C733.911560,109.114922 726.632935,102.740128 717.124084,99.783958 
	C700.229431,94.531662 684.900452,97.021645 671.343750,108.684059 
	C657.439880,120.645035 651.461853,135.550751 655.351135,153.732224 
	C656.189392,157.651016 658.528137,161.248840 660.175720,164.994522 
	C660.767944,164.877274 661.360107,164.760040 661.952332,164.642807 
	C660.936401,151.794037 661.864929,139.597702 673.601196,131.584686 
	C684.549377,124.109695 696.087891,121.847076 708.038879,129.169510 
	C707.658569,130.439407 707.278320,131.709290 706.954285,133.854904 
	C706.714905,135.864349 706.475525,137.873795 705.798279,140.080017 
	C705.834473,140.714081 705.870667,141.348129 705.942688,142.804749 
	C702.567993,154.095306 700.266113,165.852722 695.597534,176.580200 
	C685.576111,199.607559 660.298218,211.312012 636.922607,198.727219 
	C622.698425,191.069321 607.239075,192.525482 592.314758,198.319168 
	C591.412781,198.669342 590.690247,199.481964 589.691711,200.222107 
	C590.449768,200.636108 590.716797,200.911499 590.978394,200.906357 
	C609.881348,200.534531 626.240906,206.823364 640.099976,219.649719 
	C643.604797,222.893417 647.422363,223.490402 652.083069,222.221359 
	C664.639038,218.802582 677.281311,217.732956 690.026062,221.737793 
	C691.832336,222.305389 694.567322,221.937363 696.129883,220.892212 
	C701.363464,217.391678 706.728882,213.866531 711.201477,209.490005 
	C726.788330,194.237854 735.731384,175.268417 740.566895,154.242798 
	C741.005493,152.335602 740.184692,150.138763 740.241516,147.567368 
	C740.552795,147.332901 740.864014,147.098434 741.841614,147.065292 
M425.039337,230.569000 
	C424.667328,232.074799 423.976898,233.579468 423.971466,235.086578 
	C423.899323,255.066666 423.916504,275.047119 423.939636,295.027435 
	C423.941071,296.284943 424.175934,297.542175 424.282135,298.599915 
	C428.913788,298.599915 433.140503,298.599915 438.042511,298.599915 
	C438.042511,284.991394 438.042511,271.754211 438.042511,258.517029 
	C444.173553,270.673950 449.367706,282.901825 454.309448,295.230927 
	C455.389404,297.925262 456.565186,299.458344 459.665466,299.013733 
	C462.693298,298.579437 466.035828,300.191040 467.794861,295.549194 
	C472.154633,284.044373 477.106110,272.763397 481.848419,261.404388 
	C482.301971,260.318054 482.955933,259.315338 483.516876,258.273834 
	C483.865601,258.361328 484.214355,258.448853 484.563110,258.536346 
	C484.563110,271.934296 484.563110,285.332245 484.563110,298.687592 
	C489.399109,298.687592 493.667847,298.687592 497.881805,298.687592 
	C497.881805,275.857635 497.881805,253.326111 497.881805,230.428986 
	C494.085663,230.428986 490.752014,230.670868 487.469788,230.363708 
	C483.901459,230.029755 482.149994,231.398605 480.817505,234.709793 
	C476.719604,244.892975 472.270081,254.934875 467.942505,265.025360 
	C465.827728,269.956268 463.680511,274.873199 461.133728,280.752960 
	C459.928284,278.131561 459.141785,276.525543 458.441986,274.882599 
	C453.877045,264.165588 449.348145,253.433197 444.774170,242.720062 
	C439.488007,230.338821 439.473114,230.345184 425.039337,230.569000 
M474.230164,156.122818 
	C473.783905,152.655960 473.445251,149.171112 472.869873,145.725830 
	C471.519531,137.640411 467.351105,133.255249 459.343750,134.287094 
	C450.750763,135.394409 442.115356,137.765717 434.053040,140.977539 
	C424.867950,144.636642 418.949280,152.210648 415.522827,161.532471 
	C412.241211,170.460434 413.478973,178.886444 418.687744,186.736008 
	C419.566925,188.060989 420.984802,189.028534 423.187561,191.162888 
	C422.810059,187.885437 422.543823,186.263611 422.449036,184.631836 
	C422.029449,177.408676 423.558105,170.707382 428.307434,165.072281 
	C432.204773,160.448044 438.575134,158.617798 443.616760,160.384369 
	C449.108337,162.308578 452.819336,167.509827 452.547333,174.023483 
	C452.390381,177.782654 451.992188,181.927872 450.287384,185.150757 
	C445.492462,194.215347 440.068085,202.956131 434.676636,211.691727 
	C432.371460,215.426682 432.543823,217.224243 436.830170,218.000656 
	C441.538208,218.853455 446.409027,219.069366 451.210815,219.088577 
	C461.427368,219.129486 465.231934,216.366364 468.557892,206.715912 
	C474.115356,190.590530 476.091614,174.025589 474.230164,156.122818 
M765.916809,275.664795 
	C773.402893,298.958191 788.392273,316.581543 799.634216,315.275513 
	C799.634216,314.957062 799.765015,314.541565 799.612671,314.329956 
	C798.743103,313.122314 797.839783,311.935089 796.886719,310.791992 
	C786.764282,298.651306 779.605652,285.109528 777.733765,269.212067 
	C776.625916,259.803375 775.847534,250.353561 775.047363,240.911530 
	C773.979126,228.306168 769.912415,217.529343 759.304993,209.422043 
	C750.999878,203.074356 743.647095,195.482758 735.841675,188.476700 
	C734.783508,187.526917 733.553528,186.768616 732.577087,186.049744 
	C726.611389,194.865341 720.904724,203.298157 714.827515,212.278519 
	C721.644775,216.186981 728.305725,220.229523 735.168701,223.893478 
	C749.089722,231.325500 757.828064,242.557892 761.245056,258.008942 
	C762.501160,263.688721 764.196960,269.271240 765.916809,275.664795 
M541.601257,69.073334 
	C520.493530,82.432907 520.767517,107.780960 528.294800,120.209801 
	C528.470459,116.479065 528.571106,113.380272 528.770813,110.287888 
	C529.290833,102.234947 531.978943,95.020134 537.208618,88.811241 
	C546.303406,78.013573 560.421326,73.663948 571.683350,78.188591 
	C577.883301,80.679497 580.952271,84.852295 579.819214,91.397842 
	C579.018677,96.022659 576.888000,100.499367 574.843628,104.801033 
	C573.178406,108.304939 570.760620,111.451195 568.283447,115.379387 
	C576.194092,116.304550 583.240417,117.232925 590.314087,117.844398 
	C591.385376,117.937004 593.273071,116.799049 593.619263,115.819054 
	C598.054688,103.266235 602.696960,90.760231 606.409668,77.987419 
	C608.929504,69.318451 605.929138,64.553375 597.560547,61.045410 
	C595.577698,60.214230 593.478394,59.557556 591.369141,59.147343 
	C573.711121,55.713127 557.253357,58.596664 541.601257,69.073334 
M458.416382,318.079590 
	C457.252167,317.137421 456.128693,316.139008 454.917511,315.261688 
	C441.436737,305.497345 420.846619,307.376862 409.057800,319.429352 
	C397.355408,331.393555 396.044891,352.211121 406.167145,365.347992 
	C418.364166,381.177521 442.257263,383.833405 457.323914,371.034454 
	C472.838593,357.854889 473.580414,333.724213 458.416382,318.079590 
M389.200745,341.596252 
	C396.413086,327.087341 389.495880,312.663849 373.459717,310.800903 
	C363.146667,309.602814 352.581360,310.576019 341.948914,310.576019 
	C341.948914,332.992859 341.948914,355.549927 341.948914,378.111267 
	C346.544983,378.111267 350.813110,378.111267 355.601898,378.111267 
	C355.601898,369.299103 355.601898,360.739716 355.601898,352.356934 
	C360.091919,350.976929 362.454529,352.318909 364.347229,356.142181 
	C367.592804,362.698059 371.412231,368.974030 375.108215,375.298889 
	C375.797211,376.477875 376.984314,378.131775 378.033478,378.202423 
	C382.719604,378.518188 387.439026,378.339691 392.783661,378.339691 
	C387.107117,368.630249 381.956238,359.819916 377.387238,352.004852 
	C381.674011,348.366882 385.273010,345.312653 389.200745,341.596252 
M600.213745,298.958679 
	C604.774109,298.958679 609.334534,298.958679 614.738403,298.958679 
	C609.071289,289.265259 603.912292,280.440887 598.657959,271.453522 
	C599.756348,270.907745 600.480164,270.521149 601.225525,270.181824 
	C610.115601,266.134918 614.855042,258.245514 613.863403,249.129684 
	C612.905823,240.326462 606.641479,232.507355 597.317505,231.591614 
	C586.346375,230.514114 575.188538,231.339081 563.855591,231.339081 
	C563.855591,253.592926 563.855591,276.126984 563.855591,298.651703 
	C568.453186,298.651703 572.703491,298.651703 577.465332,298.651703 
	C577.465332,289.753265 577.465332,281.174500 577.465332,272.679810 
	C583.355957,271.940186 583.370728,271.931396 585.921265,276.209198 
	C590.418213,283.751526 594.895142,291.305817 600.213745,298.958679 
M219.512939,357.499390 
	C219.512939,364.406616 219.512939,371.313812 219.512939,378.152954 
	C224.446548,378.152954 228.576523,378.152954 233.171982,378.152954 
	C233.171982,368.526062 233.171982,359.101074 233.171982,349.594543 
	C243.043945,349.594543 252.444763,349.594543 262.368652,349.594543 
	C262.368652,359.254272 262.368652,368.641113 262.368652,378.136627 
	C267.175262,378.136627 271.453339,378.136627 275.758057,378.136627 
	C275.758057,355.377289 275.758057,332.851105 275.758057,310.379700 
	C271.115295,310.379700 266.879944,310.379700 262.081848,310.379700 
	C262.081848,319.769592 262.081848,328.828308 262.081848,337.705688 
	C252.121857,337.705688 242.742538,337.705688 232.805603,337.705688 
	C232.805603,328.254822 232.805603,319.204254 232.805603,310.329590 
	C228.133209,310.329590 224.038010,310.329590 219.512985,310.329590 
	C219.512985,325.914093 219.512985,341.206818 219.512939,357.499390 
M274.775818,295.347076 
	C274.565399,297.622650 274.932556,299.207031 277.884308,299.025757 
	C281.309662,298.815399 284.757874,298.976715 288.754150,298.976715 
	C288.754150,289.002289 288.754150,279.608246 288.754150,270.222961 
	C298.702881,270.222961 308.068176,270.222961 318.002167,270.222961 
	C318.002167,280.005280 318.002167,289.386810 318.002167,298.677368 
	C322.677582,298.677368 326.768738,298.677368 330.830048,298.677368 
	C330.830048,275.852661 330.830048,253.332932 330.830048,230.766174 
	C326.328461,230.766174 322.246979,230.766174 317.679504,230.766174 
	C317.679504,240.020493 317.679504,248.955078 317.679504,258.084473 
	C307.815125,258.084473 298.445007,258.084473 288.523499,258.084473 
	C288.523499,248.818466 288.523499,239.909225 288.523499,230.733139 
	C283.733246,230.733139 279.498657,230.733139 274.774445,230.733139 
	C274.774445,252.144562 274.774445,273.261261 274.775818,295.347076 
M129.526215,285.889191 
	C131.522858,285.889191 133.519485,285.889221 135.516129,285.889221 
	C145.491928,285.889221 145.423111,285.914825 148.844360,295.114746 
	C149.387894,296.576324 150.757370,298.652374 151.935959,298.788269 
	C155.924469,299.248230 159.998840,298.963715 164.459930,298.963715 
	C163.969391,297.220306 163.761688,296.262177 163.433258,295.347412 
	C156.917435,277.199158 150.446136,259.034576 143.838654,240.919708 
	C139.920685,230.178299 139.821854,230.314209 128.382156,230.287064 
	C125.296783,230.279739 123.659904,231.069168 122.574043,234.201935 
	C117.348495,249.277969 111.827049,264.251190 106.452652,279.275970 
	C104.170792,285.655151 101.991791,292.071167 99.587646,298.983368 
	C103.519196,298.983368 106.840950,298.757446 110.116798,299.048431 
	C113.245323,299.326294 114.400635,297.942444 115.330872,295.167664 
	C118.454018,285.851807 118.566185,285.889404 129.526215,285.889191 
M565.945557,328.699097 
	C569.528320,328.699097 573.111084,328.699097 576.946289,328.699097 
	C576.208801,321.014526 573.114319,315.500793 566.845642,312.365540 
	C557.493286,307.687927 547.786377,307.652527 538.413940,312.184967 
	C531.316956,315.617035 528.092590,321.798767 528.232300,329.703217 
	C528.373535,337.691437 532.721436,342.779572 539.717957,345.697418 
	C544.003784,347.484772 548.576965,348.572723 552.976624,350.102539 
	C555.161194,350.862213 557.336426,351.746094 559.354004,352.865631 
	C562.423828,354.569153 564.374023,357.575226 563.022339,360.749512 
	C561.941162,363.288269 559.427124,366.063782 556.910767,366.978882 
	C550.464661,369.323029 546.602661,366.829193 542.184143,358.982300 
	C537.475830,358.982300 532.916626,358.982300 528.364380,358.982300 
	C528.531494,365.561066 530.636230,369.866730 535.302490,373.565826 
	C543.963806,380.431915 560.134766,381.061493 569.233765,374.765228 
	C575.345947,370.535736 578.115356,364.506409 577.743469,357.162598 
	C577.366211,349.712738 573.120911,344.812073 566.518860,341.988770 
	C562.555664,340.293976 558.306152,339.281616 554.261963,337.758972 
	C551.323853,336.652771 548.205200,335.635956 545.709778,333.829498 
	C541.216309,330.576691 542.047424,323.769623 546.898010,321.444336 
	C551.945312,319.024689 558.291931,321.156036 561.224304,325.923645 
	C561.989563,327.167816 563.765198,327.790527 565.945557,328.699097 
M648.237915,246.976639 
	C647.889954,257.758789 651.594788,263.298676 661.779846,266.988770 
	C667.244324,268.968597 672.853882,270.574188 678.231445,272.758545 
	C682.000000,274.289307 683.843445,277.451172 682.960510,281.643616 
	C682.122437,285.622620 679.118408,287.313721 675.440491,287.917725 
	C669.190002,288.944275 666.143738,286.924896 662.003906,279.384949 
	C657.330933,279.384949 652.770203,279.384949 646.506287,279.384949 
	C649.131165,284.359924 650.540833,288.960571 653.459595,292.202545 
	C662.248230,301.964264 682.352844,302.067719 691.755066,292.917694 
	C701.485657,283.448090 699.107788,268.542725 686.749634,262.738495 
	C682.561279,260.771332 677.978882,259.659912 673.652832,257.963043 
	C670.741516,256.821106 667.602112,255.797043 665.205627,253.907455 
	C660.845886,250.469940 662.161560,243.877106 667.289978,241.724472 
	C672.438354,239.563477 678.225098,241.679001 681.011780,246.518173 
	C681.630066,247.591934 682.948730,248.887558 684.023071,248.962601 
	C688.121887,249.248932 692.252563,249.078201 696.828674,249.078201 
	C696.138306,241.473846 692.819641,236.270004 686.758118,232.892242 
	C680.043030,229.150253 672.786011,228.803772 665.412231,230.208237 
	C656.423218,231.920319 650.323792,236.850616 648.237915,246.976639 
M527.527832,287.329437 
	C526.881348,286.722504 525.692688,286.131744 525.674072,285.506073 
	C525.521973,280.403503 525.588440,275.294403 525.588440,269.622437 
	C533.397095,269.622437 540.630859,269.622437 548.000488,269.622437 
	C548.000488,265.649078 548.000488,262.263702 548.000488,258.292603 
	C540.406677,258.292603 533.170959,258.292603 525.962646,258.292603 
	C525.962646,252.482483 525.962646,247.271973 525.962646,241.461731 
	C534.611633,241.461731 542.833252,241.461731 550.984375,241.461731 
	C550.984375,237.438065 550.984375,234.038757 550.984375,230.768158 
	C537.676392,230.768158 524.777649,230.768158 511.730469,230.768158 
	C511.730469,253.622177 511.730469,276.052368 511.730469,298.636475 
	C525.012878,298.636475 538.037964,298.636475 550.940552,298.636475 
	C550.940552,294.727356 550.940552,291.181854 550.940552,287.368866 
	C543.171509,287.368866 535.849854,287.368866 527.527832,287.329437 
M306.622559,349.136810 
	C313.069977,349.136810 319.517395,349.136810 326.013031,349.136810 
	C326.013031,345.238617 326.013031,341.838409 326.013031,338.047058 
	C318.392517,338.047058 311.118774,338.047058 303.718994,338.047058 
	C303.718994,332.276703 303.718994,326.909668 303.718994,321.110687 
	C312.338562,321.110687 320.600708,321.110687 329.094116,321.110687 
	C329.094116,317.238861 329.094116,313.806488 329.094116,310.160278 
	C315.930573,310.160278 303.012482,310.160278 289.904999,310.160278 
	C289.904999,332.903320 289.904999,355.454437 289.904999,378.118958 
	C303.079376,378.118958 315.983582,378.118958 328.927734,378.118958 
	C328.927734,374.347321 328.927734,370.833099 328.927734,366.934967 
	C320.244781,366.934967 311.967468,366.934967 303.359528,366.934967 
	C303.359528,361.574585 303.252136,356.596130 303.462036,351.631073 
	C303.498352,350.772797 304.879852,349.971375 306.622559,349.136810 
M354.553162,230.344269 
	C351.446503,230.344269 348.339874,230.344269 345.223022,230.344269 
	C345.223022,253.581039 345.223022,276.117157 345.223022,298.818939 
	C358.344208,298.818939 371.112183,298.818939 384.138702,298.818939 
	C384.138702,295.077576 384.138702,291.505524 384.138702,287.186554 
	C375.506378,287.186554 367.147583,287.186554 358.895691,287.186554 
	C358.895691,281.016205 358.895691,275.599670 358.895691,269.476807 
	C366.594971,269.476807 373.970245,269.476807 381.283997,269.476807 
	C381.283997,265.515259 381.283997,262.273438 381.283997,258.296326 
	C373.568115,258.296326 366.198151,258.296326 358.881287,258.296326 
	C358.881287,252.457184 358.881287,247.373337 358.881287,241.699188 
	C367.421051,241.699188 375.644073,241.699188 384.135376,241.699188 
	C384.135376,237.704666 384.135376,234.307556 384.135376,230.344635 
	C374.411224,230.344635 364.973999,230.344635 354.553162,230.344269 
M517.697632,312.766602 
	C518.032715,309.554016 515.787415,309.931061 513.782471,309.933502 
	C506.620056,309.942291 499.457611,309.936859 492.295197,309.936829 
	C487.544983,309.936829 482.794800,309.936829 478.082062,309.936829 
	C478.082062,333.110809 478.082062,355.552856 478.082062,378.016418 
	C491.350891,378.016418 504.411652,378.016418 517.343384,378.016418 
	C517.343384,374.227722 517.343384,370.810455 517.343384,366.992371 
	C508.726501,366.992371 500.460419,366.992371 492.060059,366.992371 
	C492.060059,360.887268 492.060059,355.198395 492.060059,349.072449 
	C499.686584,349.072449 506.941437,349.072449 514.293030,349.072449 
	C514.293030,345.239929 514.293030,341.863556 514.293030,338.037445 
	C506.661621,338.037445 499.404510,338.037445 492.085754,338.037445 
	C492.085754,332.214447 492.085754,326.854431 492.085754,321.031677 
	C500.730499,321.031677 508.979797,321.031677 517.699097,321.031677 
	C517.699097,318.280304 517.699097,315.982117 517.697632,312.766602 
M259.452972,246.865067 
	C263.806519,242.260941 263.713623,236.729507 262.848267,230.792053 
	C247.546051,230.792053 232.335739,230.792053 217.116638,230.792053 
	C217.116638,234.701416 217.116638,238.243668 217.116638,242.387451 
	C227.023300,242.387451 236.530350,242.387451 246.835251,242.387451 
	C237.705322,256.240173 229.386642,269.481140 220.377518,282.234375 
	C216.641724,287.522644 216.336868,292.740112 216.993240,298.632263 
	C232.516602,298.632263 247.733139,298.632263 262.907349,298.632263 
	C262.907349,294.689087 262.907349,291.094086 262.907349,286.883362 
	C252.961258,286.883362 243.298691,286.883362 232.872498,286.883362 
	C241.946640,273.213593 250.490173,260.343170 259.452972,246.865067 
M173.751526,236.549347 
	C173.751526,257.253540 173.751526,277.957733 173.751526,298.641357 
	C186.199677,298.641357 197.916306,298.641357 209.591415,298.641357 
	C209.591415,294.922974 209.591415,291.543457 209.591415,287.611267 
	C201.987778,287.611267 194.767288,287.611267 187.042358,287.611267 
	C187.042358,268.347412 187.042358,249.641647 187.042358,230.900070 
	C182.427383,230.900070 178.351395,230.900070 173.993607,230.900070 
	C173.903091,232.642090 173.827362,234.099548 173.751526,236.549347 
M729.691956,71.069626 
	C723.225891,77.353645 721.674072,85.669365 725.435181,93.881454 
	C729.216492,102.137680 737.748962,107.301765 746.304016,106.511879 
	C755.090576,105.700607 760.153503,100.055344 759.785461,91.156204 
	C759.473389,83.609253 756.226196,77.378876 750.538696,72.449394 
	C744.233643,66.984627 737.780640,66.442299 729.691956,71.069626 
M461.643768,130.545776 
	C462.719269,130.107849 463.839325,129.754852 464.863129,129.218292 
	C472.012177,125.471581 475.073730,117.949402 472.643921,110.202652 
	C470.355865,102.908035 462.590698,97.742523 454.920868,98.412933 
	C446.931122,99.111320 440.922028,104.965424 440.155151,112.767639 
	C439.225952,122.221642 447.313141,133.263809 461.643768,130.545776 
M406.466553,230.599030 
	C403.374664,230.599030 400.282776,230.599030 397.039612,230.599030 
	C397.039612,253.698166 397.039612,276.081146 397.039612,298.670837 
	C401.507904,298.670837 405.733765,298.670837 410.364258,298.670837 
	C410.364258,276.772766 410.402863,255.172226 410.240906,233.573181 
	C410.233429,232.578308 408.425812,231.596924 406.466553,230.599030 
M609.715393,27.503242 
	C601.357544,24.804869 594.465881,26.736073 590.329224,32.935658 
	C586.317505,38.948040 586.640930,47.394539 591.096252,52.967243 
	C595.714050,58.743164 604.111084,60.882290 610.913086,58.015491 
	C617.395264,55.283497 621.013611,48.581085 620.020447,40.879768 
	C619.236084,34.796547 615.814148,30.567051 609.715393,27.503242 
M622.253540,113.146767 
	C627.083008,113.612465 632.151062,114.393593 635.679810,110.048264 
	C639.951660,104.787918 644.500916,100.208328 651.968445,99.767235 
	C648.002869,95.234352 641.949158,94.440552 635.393311,97.289391 
	C626.756287,101.042610 626.499207,101.148407 620.358276,93.864212 
	C617.604370,90.597580 615.540588,86.734962 613.287598,83.066681 
	C612.296753,81.453445 611.615173,79.650284 610.262146,76.823944 
	C607.471069,85.423073 604.932861,92.747276 602.830200,100.194450 
	C602.466553,101.482544 603.506104,104.087555 604.652954,104.724762 
	C610.104187,107.753571 615.816711,110.312080 622.253540,113.146767 
M492.343811,155.423920 
	C486.977844,151.777222 481.611847,148.130524 476.130859,144.405655 
	C476.822815,151.895813 477.271545,159.215332 478.326416,166.446426 
	C478.591370,168.262604 480.501129,170.799088 482.165253,171.296127 
	C493.541290,174.693878 504.296844,172.979233 513.865356,165.808243 
	C519.229492,161.788101 521.655212,156.265488 521.085999,148.691086 
	C513.698853,159.059631 508.163025,161.116760 498.163483,157.725037 
	C496.430603,157.137268 494.738861,156.428268 492.343811,155.423920 
M632.762085,230.415588 
	C631.005188,230.956161 627.950134,231.148544 627.696960,232.092453 
	C625.690613,239.572342 624.217529,247.195282 622.281799,256.157745 
	C626.426697,255.216324 631.183899,255.482025 632.184998,253.671204 
	C636.138489,246.520004 638.913574,238.717422 642.440369,230.416000 
	C638.894592,230.416000 636.277283,230.416000 632.762085,230.415588 
z"/>
<path fill="#812683" opacity="1.000000" stroke="none" 
	d="
M739.948730,148.076431 
	C740.184692,150.138763 741.005493,152.335602 740.566895,154.242798 
	C735.731384,175.268417 726.788330,194.237854 711.201477,209.490005 
	C706.728882,213.866531 701.363464,217.391678 696.129883,220.892212 
	C694.567322,221.937363 691.832336,222.305389 690.026062,221.737793 
	C677.281311,217.732956 664.639038,218.802582 652.083069,222.221359 
	C647.422363,223.490402 643.604797,222.893417 640.099976,219.649719 
	C626.240906,206.823364 609.881348,200.534531 590.978394,200.906357 
	C590.716797,200.911499 590.449768,200.636108 589.691711,200.222107 
	C590.690247,199.481964 591.412781,198.669342 592.314758,198.319168 
	C607.239075,192.525482 622.698425,191.069321 636.922607,198.727219 
	C660.298218,211.312012 685.576111,199.607559 695.597534,176.580200 
	C700.266113,165.852722 702.567993,154.095306 706.114990,142.173523 
	C706.270264,140.989273 706.253174,140.436264 706.236084,139.883240 
	C706.475525,137.873795 706.714905,135.864349 707.200317,133.164352 
	C709.084961,132.772964 710.915771,132.700150 712.330872,133.431625 
	C721.587036,138.216156 730.753113,143.174728 739.948730,148.076431 
z"/>
<path fill="#822784" opacity="1.000000" stroke="none" 
	d="
M708.342957,128.540222 
	C696.087891,121.847076 684.549377,124.109695 673.601196,131.584686 
	C661.864929,139.597702 660.936401,151.794037 661.952332,164.642807 
	C661.360107,164.760040 660.767944,164.877274 660.175720,164.994522 
	C658.528137,161.248840 656.189392,157.651016 655.351135,153.732224 
	C651.461853,135.550751 657.439880,120.645035 671.343750,108.684059 
	C684.900452,97.021645 700.229431,94.531662 717.124084,99.783958 
	C726.632935,102.740128 733.911560,109.114922 741.518799,115.059364 
	C750.308044,121.927475 759.182617,128.686859 768.052246,135.451401 
	C777.211426,142.436737 787.106750,143.528885 797.723450,139.142639 
	C799.777222,138.294128 802.015625,137.892197 805.434814,136.926773 
	C804.584106,139.708572 804.333862,141.421829 803.574524,142.867783 
	C797.688904,154.075592 784.615417,160.660599 771.928101,157.457123 
	C761.678101,154.869064 751.854431,150.592712 741.310181,146.683655 
	C729.966797,140.381409 719.154907,134.460815 708.342957,128.540222 
z"/>
<path fill="#F39507" opacity="1.000000" stroke="none" 
	d="
M425.491608,230.511444 
	C439.473114,230.345184 439.488007,230.338821 444.774170,242.720062 
	C449.348145,253.433197 453.877045,264.165588 458.441986,274.882599 
	C459.141785,276.525543 459.928284,278.131561 461.133728,280.752960 
	C463.680511,274.873199 465.827728,269.956268 467.942505,265.025360 
	C472.270081,254.934875 476.719604,244.892975 480.817505,234.709793 
	C482.149994,231.398605 483.901459,230.029755 487.469788,230.363708 
	C490.752014,230.670868 494.085663,230.428986 497.881805,230.428986 
	C497.881805,253.326111 497.881805,275.857635 497.881805,298.687592 
	C493.667847,298.687592 489.399109,298.687592 484.563110,298.687592 
	C484.563110,285.332245 484.563110,271.934296 484.563110,258.536346 
	C484.214355,258.448853 483.865601,258.361328 483.516876,258.273834 
	C482.955933,259.315338 482.301971,260.318054 481.848419,261.404388 
	C477.106110,272.763397 472.154633,284.044373 467.794861,295.549194 
	C466.035828,300.191040 462.693298,298.579437 459.665466,299.013733 
	C456.565186,299.458344 455.389404,297.925262 454.309448,295.230927 
	C449.367706,282.901825 444.173553,270.673950 438.042511,258.517029 
	C438.042511,271.754211 438.042511,284.991394 438.042511,298.599915 
	C433.140503,298.599915 428.913788,298.599915 424.282135,298.599915 
	C424.175934,297.542175 423.941071,296.284943 423.939636,295.027435 
	C423.916504,275.047119 423.899323,255.066666 423.971466,235.086578 
	C423.976898,233.579468 424.667328,232.074799 425.491608,230.511444 
z"/>
<path fill="#050505" opacity="1.000000" stroke="none" 
	d="
M474.273071,156.580429 
	C476.091614,174.025589 474.115356,190.590530 468.557892,206.715912 
	C465.231934,216.366364 461.427368,219.129486 451.210815,219.088577 
	C446.409027,219.069366 441.538208,218.853455 436.830170,218.000656 
	C432.543823,217.224243 432.371460,215.426682 434.676636,211.691727 
	C440.068085,202.956131 445.492462,194.215347 450.287384,185.150757 
	C451.992188,181.927872 452.390381,177.782654 452.547333,174.023483 
	C452.819336,167.509827 449.108337,162.308578 443.616760,160.384369 
	C438.575134,158.617798 432.204773,160.448044 428.307434,165.072281 
	C423.558105,170.707382 422.029449,177.408676 422.449036,184.631836 
	C422.543823,186.263611 422.810059,187.885437 423.187561,191.162888 
	C420.984802,189.028534 419.566925,188.060989 418.687744,186.736008 
	C413.478973,178.886444 412.241211,170.460434 415.522827,161.532471 
	C418.949280,152.210648 424.867950,144.636642 434.053040,140.977539 
	C442.115356,137.765717 450.750763,135.394409 459.343750,134.287094 
	C467.351105,133.255249 471.519531,137.640411 472.869873,145.725830 
	C473.445251,149.171112 473.783905,152.655960 474.273071,156.580429 
z"/>
<path fill="#822784" opacity="1.000000" stroke="none" 
	d="
M765.804504,275.281433 
	C764.196960,269.271240 762.501160,263.688721 761.245056,258.008942 
	C757.828064,242.557892 749.089722,231.325500 735.168701,223.893478 
	C728.305725,220.229523 721.644775,216.186981 714.827515,212.278519 
	C720.904724,203.298157 726.611389,194.865341 732.577087,186.049744 
	C733.553528,186.768616 734.783508,187.526917 735.841675,188.476700 
	C743.647095,195.482758 750.999878,203.074356 759.304993,209.422043 
	C769.912415,217.529343 773.979126,228.306168 775.047363,240.911530 
	C775.847534,250.353561 776.625916,259.803375 777.733765,269.212067 
	C779.605652,285.109528 786.764282,298.651306 796.886719,310.791992 
	C797.839783,311.935089 798.743103,313.122314 799.612671,314.329956 
	C799.765015,314.541565 799.634216,314.957062 799.634216,315.275513 
	C788.392273,316.581543 773.402893,298.958191 765.804504,275.281433 
z"/>
<path fill="#F39506" opacity="1.000000" stroke="none" 
	d="
M555.431824,136.035416 
	C555.465149,123.721565 560.895264,118.404358 573.325012,118.899948 
	C586.590149,119.428848 599.842712,120.270645 613.107117,120.822571 
	C617.403687,121.001343 621.770386,120.239159 626.017883,120.703827 
	C636.109131,121.807777 638.863892,124.470604 641.170105,134.208832 
	C643.353821,143.429657 645.502502,152.658813 647.649658,161.888260 
	C650.191956,172.815994 654.095398,182.910828 664.860901,189.134338 
	C659.119873,189.929901 653.314880,188.084488 649.483765,182.744873 
	C645.367065,177.007248 642.146606,170.559418 639.065369,164.165863 
	C636.257324,158.339233 634.405273,152.056564 631.685547,146.181442 
	C628.427673,139.143387 624.084045,137.730850 616.589844,139.708725 
	C603.441406,143.178864 590.197144,146.285492 576.267212,149.523315 
	C574.699524,149.698654 573.857605,149.895050 573.015686,150.091461 
	C572.256897,150.065552 571.498169,150.039658 570.137939,149.866974 
	C568.973022,149.746643 568.409607,149.773071 567.846130,149.799500 
	C567.142578,149.561066 566.438965,149.322617 565.190186,148.736160 
	C559.743774,145.635498 557.176758,141.142059 555.431824,136.035416 
z"/>
<path fill="#F39406" opacity="1.000000" stroke="none" 
	d="
M541.904541,68.881035 
	C557.253357,58.596664 573.711121,55.713127 591.369141,59.147343 
	C593.478394,59.557556 595.577698,60.214230 597.560547,61.045410 
	C605.929138,64.553375 608.929504,69.318451 606.409668,77.987419 
	C602.696960,90.760231 598.054688,103.266235 593.619263,115.819054 
	C593.273071,116.799049 591.385376,117.937004 590.314087,117.844398 
	C583.240417,117.232925 576.194092,116.304550 568.283447,115.379387 
	C570.760620,111.451195 573.178406,108.304939 574.843628,104.801033 
	C576.888000,100.499367 579.018677,96.022659 579.819214,91.397842 
	C580.952271,84.852295 577.883301,80.679497 571.683350,78.188591 
	C560.421326,73.663948 546.303406,78.013573 537.208618,88.811241 
	C531.978943,95.020134 529.290833,102.234947 528.770813,110.287888 
	C528.571106,113.380272 528.470459,116.479065 528.294800,120.209801 
	C520.767517,107.780960 520.493530,82.432907 541.904541,68.881035 
z"/>
<path fill="#070707" opacity="1.000000" stroke="none" 
	d="
M458.676758,318.318787 
	C473.580414,333.724213 472.838593,357.854889 457.323914,371.034454 
	C442.257263,383.833405 418.364166,381.177521 406.167145,365.347992 
	C396.044891,352.211121 397.355408,331.393555 409.057800,319.429352 
	C420.846619,307.376862 441.436737,305.497345 454.917511,315.261688 
	C456.128693,316.139008 457.252167,317.137421 458.676758,318.318787 
M421.340546,325.748718 
	C420.398529,326.686646 419.359528,327.546265 418.529297,328.574463 
	C409.244232,340.073944 413.202148,359.921875 425.779236,365.060425 
	C435.321167,368.958984 445.680786,366.195038 451.208160,358.276093 
	C457.300018,349.548340 456.426605,335.005920 449.363525,327.564117 
	C442.403259,320.230499 431.584564,319.331787 421.340546,325.748718 
z"/>
<path fill="#080808" opacity="1.000000" stroke="none" 
	d="
M389.036377,341.927307 
	C385.273010,345.312653 381.674011,348.366882 377.387238,352.004852 
	C381.956238,359.819916 387.107117,368.630249 392.783661,378.339691 
	C387.439026,378.339691 382.719604,378.518188 378.033478,378.202423 
	C376.984314,378.131775 375.797211,376.477875 375.108215,375.298889 
	C371.412231,368.974030 367.592804,362.698059 364.347229,356.142181 
	C362.454529,352.318909 360.091919,350.976929 355.601898,352.356934 
	C355.601898,360.739716 355.601898,369.299103 355.601898,378.111267 
	C350.813110,378.111267 346.544983,378.111267 341.948914,378.111267 
	C341.948914,355.549927 341.948914,332.992859 341.948914,310.576019 
	C352.581360,310.576019 363.146667,309.602814 373.459717,310.800903 
	C389.495880,312.663849 396.413086,327.087341 389.036377,341.927307 
M376.487976,336.790253 
	C379.847351,327.015259 376.127808,321.535187 365.959656,321.339142 
	C362.678406,321.275879 359.394867,321.329224 355.819427,321.329224 
	C355.819427,328.138275 355.819427,334.490631 355.819427,341.296509 
	C359.467896,341.296509 363.008484,341.795166 366.330780,341.157104 
	C369.693115,340.511292 372.839355,338.740570 376.487976,336.790253 
z"/>
<path fill="#F39404" opacity="1.000000" stroke="none" 
	d="
M599.797119,298.906921 
	C594.895142,291.305817 590.418213,283.751526 585.921265,276.209198 
	C583.370728,271.931396 583.355957,271.940186 577.465332,272.679810 
	C577.465332,281.174500 577.465332,289.753265 577.465332,298.651703 
	C572.703491,298.651703 568.453186,298.651703 563.855591,298.651703 
	C563.855591,276.126984 563.855591,253.592926 563.855591,231.339081 
	C575.188538,231.339081 586.346375,230.514114 597.317505,231.591614 
	C606.641479,232.507355 612.905823,240.326462 613.863403,249.129684 
	C614.855042,258.245514 610.115601,266.134918 601.225525,270.181824 
	C600.480164,270.521149 599.756348,270.907745 598.657959,271.453522 
	C603.912292,280.440887 609.071289,289.265259 614.738403,298.958679 
	C609.334534,298.958679 604.774109,298.958679 599.797119,298.906921 
M598.952271,256.183044 
	C600.819336,248.405075 598.402954,243.046326 592.070801,242.275650 
	C587.369995,241.703506 582.543640,242.163055 577.621826,242.163055 
	C577.621826,248.909744 577.621826,255.280396 577.621826,261.864594 
	C581.990906,261.864594 586.112366,262.500305 589.910950,261.665833 
	C593.016357,260.983643 595.736389,258.547394 598.952271,256.183044 
z"/>
<path fill="#060606" opacity="1.000000" stroke="none" 
	d="
M219.512970,356.999451 
	C219.512985,341.206818 219.512985,325.914093 219.512985,310.329590 
	C224.038010,310.329590 228.133209,310.329590 232.805603,310.329590 
	C232.805603,319.204254 232.805603,328.254822 232.805603,337.705688 
	C242.742538,337.705688 252.121857,337.705688 262.081848,337.705688 
	C262.081848,328.828308 262.081848,319.769592 262.081848,310.379700 
	C266.879944,310.379700 271.115295,310.379700 275.758057,310.379700 
	C275.758057,332.851105 275.758057,355.377289 275.758057,378.136627 
	C271.453339,378.136627 267.175262,378.136627 262.368652,378.136627 
	C262.368652,368.641113 262.368652,359.254272 262.368652,349.594543 
	C252.444763,349.594543 243.043945,349.594543 233.171982,349.594543 
	C233.171982,359.101074 233.171982,368.526062 233.171982,378.152954 
	C228.576523,378.152954 224.446548,378.152954 219.512939,378.152954 
	C219.512939,371.313812 219.512939,364.406616 219.512970,356.999451 
z"/>
<path fill="#F39406" opacity="1.000000" stroke="none" 
	d="
M274.775146,294.862518 
	C274.774445,273.261261 274.774445,252.144562 274.774445,230.733139 
	C279.498657,230.733139 283.733246,230.733139 288.523499,230.733139 
	C288.523499,239.909225 288.523499,248.818466 288.523499,258.084473 
	C298.445007,258.084473 307.815125,258.084473 317.679504,258.084473 
	C317.679504,248.955078 317.679504,240.020493 317.679504,230.766174 
	C322.246979,230.766174 326.328461,230.766174 330.830048,230.766174 
	C330.830048,253.332932 330.830048,275.852661 330.830048,298.677368 
	C326.768738,298.677368 322.677582,298.677368 318.002167,298.677368 
	C318.002167,289.386810 318.002167,280.005280 318.002167,270.222961 
	C308.068176,270.222961 298.702881,270.222961 288.754150,270.222961 
	C288.754150,279.608246 288.754150,289.002289 288.754150,298.976715 
	C284.757874,298.976715 281.309662,298.815399 277.884308,299.025757 
	C274.932556,299.207031 274.565399,297.622650 274.775146,294.862518 
z"/>
<path fill="#F39507" opacity="1.000000" stroke="none" 
	d="
M129.032898,285.889160 
	C118.566185,285.889404 118.454018,285.851807 115.330872,295.167664 
	C114.400635,297.942444 113.245323,299.326294 110.116798,299.048431 
	C106.840950,298.757446 103.519196,298.983368 99.587646,298.983368 
	C101.991791,292.071167 104.170792,285.655151 106.452652,279.275970 
	C111.827049,264.251190 117.348495,249.277969 122.574043,234.201935 
	C123.659904,231.069168 125.296783,230.279739 128.382156,230.287064 
	C139.821854,230.314209 139.920685,230.178299 143.838654,240.919708 
	C150.446136,259.034576 156.917435,277.199158 163.433258,295.347412 
	C163.761688,296.262177 163.969391,297.220306 164.459930,298.963715 
	C159.998840,298.963715 155.924469,299.248230 151.935959,298.788269 
	C150.757370,298.652374 149.387894,296.576324 148.844360,295.114746 
	C145.423111,285.914825 145.491928,285.889221 135.516129,285.889221 
	C133.519485,285.889221 131.522858,285.889191 129.032898,285.889160 
M134.850082,254.680649 
	C134.102676,252.767181 133.355270,250.853714 132.607864,248.940262 
	C132.158859,248.945969 131.709854,248.951691 131.260849,248.957413 
	C128.336197,257.351074 125.411545,265.744751 122.338531,274.564209 
	C129.212311,274.564209 134.983994,274.564209 141.773605,274.564209 
	C139.425644,267.835541 137.257599,261.622498 134.850082,254.680649 
z"/>
<path fill="#090909" opacity="1.000000" stroke="none" 
	d="
M565.511230,328.698853 
	C563.765198,327.790527 561.989563,327.167816 561.224304,325.923645 
	C558.291931,321.156036 551.945312,319.024689 546.898010,321.444336 
	C542.047424,323.769623 541.216309,330.576691 545.709778,333.829498 
	C548.205200,335.635956 551.323853,336.652771 554.261963,337.758972 
	C558.306152,339.281616 562.555664,340.293976 566.518860,341.988770 
	C573.120911,344.812073 577.366211,349.712738 577.743469,357.162598 
	C578.115356,364.506409 575.345947,370.535736 569.233765,374.765228 
	C560.134766,381.061493 543.963806,380.431915 535.302490,373.565826 
	C530.636230,369.866730 528.531494,365.561066 528.364380,358.982300 
	C532.916626,358.982300 537.475830,358.982300 542.184143,358.982300 
	C546.602661,366.829193 550.464661,369.323029 556.910767,366.978882 
	C559.427124,366.063782 561.941162,363.288269 563.022339,360.749512 
	C564.374023,357.575226 562.423828,354.569153 559.354004,352.865631 
	C557.336426,351.746094 555.161194,350.862213 552.976624,350.102539 
	C548.576965,348.572723 544.003784,347.484772 539.717957,345.697418 
	C532.721436,342.779572 528.373535,337.691437 528.232300,329.703217 
	C528.092590,321.798767 531.316956,315.617035 538.413940,312.184967 
	C547.786377,307.652527 557.493286,307.687927 566.845642,312.365540 
	C573.114319,315.500793 576.208801,321.014526 576.946289,328.699097 
	C573.111084,328.699097 569.528320,328.699097 565.511230,328.698853 
z"/>
<path fill="#F39506" opacity="1.000000" stroke="none" 
	d="
M564.994324,151.012421 
	C569.467407,151.824203 573.940552,152.636002 578.416626,153.448334 
	C574.010681,175.479980 554.641602,193.943771 529.905762,198.961166 
	C525.514160,199.851944 520.928955,199.955826 516.643738,201.167801 
	C508.067535,203.593369 499.614502,206.466827 491.158813,209.299362 
	C488.256531,210.271606 485.498138,211.673447 482.673981,212.879013 
	C482.346527,212.541733 482.019073,212.204437 481.691589,211.867142 
	C482.333099,210.510345 482.795471,209.028137 483.643951,207.816238 
	C491.781403,196.193375 502.391602,187.999268 516.553650,185.321396 
	C528.033508,183.150696 536.678833,177.271271 541.354431,166.603271 
	C545.340515,157.508499 548.437256,148.023880 552.321960,138.240021 
	C553.580078,139.223267 554.197144,140.923920 555.354980,142.085632 
	C558.443909,145.184998 561.765320,148.052658 564.994324,151.012421 
z"/>
<path fill="#F39508" opacity="1.000000" stroke="none" 
	d="
M648.311462,246.566177 
	C650.323792,236.850616 656.423218,231.920319 665.412231,230.208237 
	C672.786011,228.803772 680.043030,229.150253 686.758118,232.892242 
	C692.819641,236.270004 696.138306,241.473846 696.828674,249.078201 
	C692.252563,249.078201 688.121887,249.248932 684.023071,248.962601 
	C682.948730,248.887558 681.630066,247.591934 681.011780,246.518173 
	C678.225098,241.679001 672.438354,239.563477 667.289978,241.724472 
	C662.161560,243.877106 660.845886,250.469940 665.205627,253.907455 
	C667.602112,255.797043 670.741516,256.821106 673.652832,257.963043 
	C677.978882,259.659912 682.561279,260.771332 686.749634,262.738495 
	C699.107788,268.542725 701.485657,283.448090 691.755066,292.917694 
	C682.352844,302.067719 662.248230,301.964264 653.459595,292.202545 
	C650.540833,288.960571 649.131165,284.359924 646.506287,279.384949 
	C652.770203,279.384949 657.330933,279.384949 662.003906,279.384949 
	C666.143738,286.924896 669.190002,288.944275 675.440491,287.917725 
	C679.118408,287.313721 682.122437,285.622620 682.960510,281.643616 
	C683.843445,277.451172 682.000000,274.289307 678.231445,272.758545 
	C672.853882,270.574188 667.244324,268.968597 661.779846,266.988770 
	C651.594788,263.298676 647.889954,257.758789 648.311462,246.566177 
z"/>
<path fill="#F39609" opacity="1.000000" stroke="none" 
	d="
M528.027954,287.349152 
	C535.849854,287.368866 543.171509,287.368866 550.940552,287.368866 
	C550.940552,291.181854 550.940552,294.727356 550.940552,298.636475 
	C538.037964,298.636475 525.012878,298.636475 511.730469,298.636475 
	C511.730469,276.052368 511.730469,253.622177 511.730469,230.768158 
	C524.777649,230.768158 537.676392,230.768158 550.984375,230.768158 
	C550.984375,234.038757 550.984375,237.438065 550.984375,241.461731 
	C542.833252,241.461731 534.611633,241.461731 525.962646,241.461731 
	C525.962646,247.271973 525.962646,252.482483 525.962646,258.292603 
	C533.170959,258.292603 540.406677,258.292603 548.000488,258.292603 
	C548.000488,262.263702 548.000488,265.649078 548.000488,269.622437 
	C540.630859,269.622437 533.397095,269.622437 525.588440,269.622437 
	C525.588440,275.294403 525.521973,280.403503 525.674072,285.506073 
	C525.692688,286.131744 526.881348,286.722504 528.027954,287.349152 
z"/>
<path fill="#040404" opacity="1.000000" stroke="none" 
	d="
M306.131287,349.140259 
	C304.879852,349.971375 303.498352,350.772797 303.462036,351.631073 
	C303.252136,356.596130 303.359528,361.574585 303.359528,366.934967 
	C311.967468,366.934967 320.244781,366.934967 328.927734,366.934967 
	C328.927734,370.833099 328.927734,374.347321 328.927734,378.118958 
	C315.983582,378.118958 303.079376,378.118958 289.904999,378.118958 
	C289.904999,355.454437 289.904999,332.903320 289.904999,310.160278 
	C303.012482,310.160278 315.930573,310.160278 329.094116,310.160278 
	C329.094116,313.806488 329.094116,317.238861 329.094116,321.110687 
	C320.600708,321.110687 312.338562,321.110687 303.718994,321.110687 
	C303.718994,326.909668 303.718994,332.276703 303.718994,338.047058 
	C311.118774,338.047058 318.392517,338.047058 326.013031,338.047058 
	C326.013031,341.838409 326.013031,345.238617 326.013031,349.136810 
	C319.517395,349.136810 313.069977,349.136810 306.131287,349.140259 
z"/>
<path fill="#F3960A" opacity="1.000000" stroke="none" 
	d="
M355.044983,230.344452 
	C364.973999,230.344635 374.411224,230.344635 384.135376,230.344635 
	C384.135376,234.307556 384.135376,237.704666 384.135376,241.699188 
	C375.644073,241.699188 367.421051,241.699188 358.881287,241.699188 
	C358.881287,247.373337 358.881287,252.457184 358.881287,258.296326 
	C366.198151,258.296326 373.568115,258.296326 381.283997,258.296326 
	C381.283997,262.273438 381.283997,265.515259 381.283997,269.476807 
	C373.970245,269.476807 366.594971,269.476807 358.895691,269.476807 
	C358.895691,275.599670 358.895691,281.016205 358.895691,287.186554 
	C367.147583,287.186554 375.506378,287.186554 384.138702,287.186554 
	C384.138702,291.505524 384.138702,295.077576 384.138702,298.818939 
	C371.112183,298.818939 358.344208,298.818939 345.223022,298.818939 
	C345.223022,276.117157 345.223022,253.581039 345.223022,230.344269 
	C348.339874,230.344269 351.446503,230.344269 355.044983,230.344452 
z"/>
<path fill="#080808" opacity="1.000000" stroke="none" 
	d="
M517.698364,313.225281 
	C517.699097,315.982117 517.699097,318.280304 517.699097,321.031677 
	C508.979797,321.031677 500.730499,321.031677 492.085754,321.031677 
	C492.085754,326.854431 492.085754,332.214447 492.085754,338.037445 
	C499.404510,338.037445 506.661621,338.037445 514.293030,338.037445 
	C514.293030,341.863556 514.293030,345.239929 514.293030,349.072449 
	C506.941437,349.072449 499.686584,349.072449 492.060059,349.072449 
	C492.060059,355.198395 492.060059,360.887268 492.060059,366.992371 
	C500.460419,366.992371 508.726501,366.992371 517.343384,366.992371 
	C517.343384,370.810455 517.343384,374.227722 517.343384,378.016418 
	C504.411652,378.016418 491.350891,378.016418 478.082062,378.016418 
	C478.082062,355.552856 478.082062,333.110809 478.082062,309.936829 
	C482.794800,309.936829 487.544983,309.936829 492.295197,309.936829 
	C499.457611,309.936859 506.620056,309.942291 513.782471,309.933502 
	C515.787415,309.931061 518.032715,309.554016 517.698364,313.225281 
z"/>
<path fill="#F39404" opacity="1.000000" stroke="none" 
	d="
M259.243347,247.168900 
	C250.490173,260.343170 241.946640,273.213593 232.872498,286.883362 
	C243.298691,286.883362 252.961258,286.883362 262.907349,286.883362 
	C262.907349,291.094086 262.907349,294.689087 262.907349,298.632263 
	C247.733139,298.632263 232.516602,298.632263 216.993240,298.632263 
	C216.336868,292.740112 216.641724,287.522644 220.377518,282.234375 
	C229.386642,269.481140 237.705322,256.240173 246.835251,242.387451 
	C236.530350,242.387451 227.023300,242.387451 217.116638,242.387451 
	C217.116638,238.243668 217.116638,234.701416 217.116638,230.792053 
	C232.335739,230.792053 247.546051,230.792053 262.848267,230.792053 
	C263.713623,236.729507 263.806519,242.260941 259.243347,247.168900 
z"/>
<path fill="#F39301" opacity="1.000000" stroke="none" 
	d="
M173.751587,236.053177 
	C173.827362,234.099548 173.903091,232.642090 173.993607,230.900070 
	C178.351395,230.900070 182.427383,230.900070 187.042358,230.900070 
	C187.042358,249.641647 187.042358,268.347412 187.042358,287.611267 
	C194.767288,287.611267 201.987778,287.611267 209.591415,287.611267 
	C209.591415,291.543457 209.591415,294.922974 209.591415,298.641357 
	C197.916306,298.641357 186.199677,298.641357 173.751526,298.641357 
	C173.751526,277.957733 173.751526,257.253540 173.751587,236.053177 
z"/>
<path fill="#822784" opacity="1.000000" stroke="none" 
	d="
M730.003113,70.859734 
	C737.780640,66.442299 744.233643,66.984627 750.538696,72.449394 
	C756.226196,77.378876 759.473389,83.609253 759.785461,91.156204 
	C760.153503,100.055344 755.090576,105.700607 746.304016,106.511879 
	C737.748962,107.301765 729.216492,102.137680 725.435181,93.881454 
	C721.674072,85.669365 723.225891,77.353645 730.003113,70.859734 
z"/>
<path fill="#060606" opacity="1.000000" stroke="none" 
	d="
M461.235657,130.643463 
	C447.313141,133.263809 439.225952,122.221642 440.155151,112.767639 
	C440.922028,104.965424 446.931122,99.111320 454.920868,98.412933 
	C462.590698,97.742523 470.355865,102.908035 472.643921,110.202652 
	C475.073730,117.949402 472.012177,125.471581 464.863129,129.218292 
	C463.839325,129.754852 462.719269,130.107849 461.235657,130.643463 
z"/>
<path fill="#F39301" opacity="1.000000" stroke="none" 
	d="
M406.961548,230.604141 
	C408.425812,231.596924 410.233429,232.578308 410.240906,233.573181 
	C410.402863,255.172226 410.364258,276.772766 410.364258,298.670837 
	C405.733765,298.670837 401.507904,298.670837 397.039612,298.670837 
	C397.039612,276.081146 397.039612,253.698166 397.039612,230.599030 
	C400.282776,230.599030 403.374664,230.599030 406.961548,230.604141 
z"/>
<path fill="#F39405" opacity="1.000000" stroke="none" 
	d="
M610.064636,27.671169 
	C615.814148,30.567051 619.236084,34.796547 620.020447,40.879768 
	C621.013611,48.581085 617.395264,55.283497 610.913086,58.015491 
	C604.111084,60.882290 595.714050,58.743164 591.096252,52.967243 
	C586.640930,47.394539 586.317505,38.948040 590.329224,32.935658 
	C594.465881,26.736073 601.357544,24.804869 610.064636,27.671169 
z"/>
<path fill="#F39609" opacity="1.000000" stroke="none" 
	d="
M621.844849,113.092392 
	C615.816711,110.312080 610.104187,107.753571 604.652954,104.724762 
	C603.506104,104.087555 602.466553,101.482544 602.830200,100.194450 
	C604.932861,92.747276 607.471069,85.423073 610.262146,76.823944 
	C611.615173,79.650284 612.296753,81.453445 613.287598,83.066681 
	C615.540588,86.734962 617.604370,90.597580 620.358276,93.864212 
	C626.499207,101.148407 626.756287,101.042610 635.393311,97.289391 
	C641.949158,94.440552 648.002869,95.234352 651.968445,99.767235 
	C644.500916,100.208328 639.951660,104.787918 635.679810,110.048264 
	C632.151062,114.393593 627.083008,113.612465 621.844849,113.092392 
z"/>
<path fill="#0A0A0A" opacity="1.000000" stroke="none" 
	d="
M492.685974,155.599609 
	C494.738861,156.428268 496.430603,157.137268 498.163483,157.725037 
	C508.163025,161.116760 513.698853,159.059631 521.085999,148.691086 
	C521.655212,156.265488 519.229492,161.788101 513.865356,165.808243 
	C504.296844,172.979233 493.541290,174.693878 482.165253,171.296127 
	C480.501129,170.799088 478.591370,168.262604 478.326416,166.446426 
	C477.271545,159.215332 476.822815,151.895813 476.130859,144.405655 
	C481.611847,148.130524 486.977844,151.777222 492.685974,155.599609 
z"/>
<path fill="#F3960A" opacity="1.000000" stroke="none" 
	d="
M633.210999,230.415802 
	C636.277283,230.416000 638.894592,230.416000 642.440369,230.416000 
	C638.913574,238.717422 636.138489,246.520004 632.184998,253.671204 
	C631.183899,255.482025 626.426697,255.216324 622.281799,256.157745 
	C624.217529,247.195282 625.690613,239.572342 627.696960,232.092453 
	C627.950134,231.148544 631.005188,230.956161 633.210999,230.415802 
z"/>
<path fill="#E4D0E4" opacity="1.000000" stroke="none" 
	d="
M708.190918,128.854858 
	C719.154907,134.460815 729.966797,140.381409 740.977051,146.582977 
	C740.864014,147.098434 740.552795,147.332901 740.095093,147.821899 
	C730.753113,143.174728 721.587036,138.216156 712.330872,133.431625 
	C710.915771,132.700150 709.084961,132.772964 707.172241,132.726501 
	C707.278320,131.709290 707.658569,130.439407 708.190918,128.854858 
z"/>
<path fill="#FCE1BA" opacity="1.000000" stroke="none" 
	d="
M564.994507,150.667419 
	C561.765320,148.052658 558.443909,145.184998 555.354980,142.085632 
	C554.197144,140.923920 553.580078,139.223267 552.335938,137.847656 
	C552.138977,136.870972 552.322510,135.814972 552.506104,134.758957 
	C553.267090,135.101883 554.028137,135.444809 555.110474,135.911575 
	C557.176758,141.142059 559.743774,145.635498 564.824463,148.665314 
	C565.000854,149.402466 564.997803,149.862442 564.994507,150.667419 
z"/>
<path fill="#FCE1BA" opacity="1.000000" stroke="none" 
	d="
M573.184631,150.312378 
	C573.857605,149.895050 574.699524,149.698654 575.848022,149.649475 
	C575.220886,150.042236 574.287231,150.287781 573.184631,150.312378 
z"/>
<path fill="#E4D0E4" opacity="1.000000" stroke="none" 
	d="
M706.017212,139.981628 
	C706.253174,140.436264 706.270264,140.989273 706.097046,141.762238 
	C705.870667,141.348129 705.834473,140.714081 706.017212,139.981628 
z"/>
<path fill="#FCE1BA" opacity="1.000000" stroke="none" 
	d="
M567.958374,150.010132 
	C568.409607,149.773071 568.973022,149.746643 569.760498,149.912323 
	C569.346558,150.143204 568.708618,150.181992 567.958374,150.010132 
z"/>
<path fill="#FAFAFA" opacity="1.000000" stroke="none" 
	d="
M421.624847,325.516052 
	C431.584564,319.331787 442.403259,320.230499 449.363525,327.564117 
	C456.426605,335.005920 457.300018,349.548340 451.208160,358.276093 
	C445.680786,366.195038 435.321167,368.958984 425.779236,365.060425 
	C413.202148,359.921875 409.244232,340.073944 418.529297,328.574463 
	C419.359528,327.546265 420.398529,326.686646 421.624847,325.516052 
z"/>
<path fill="#F8F8F8" opacity="1.000000" stroke="none" 
	d="
M376.284119,337.126404 
	C372.839355,338.740570 369.693115,340.511292 366.330780,341.157104 
	C363.008484,341.795166 359.467896,341.296509 355.819427,341.296509 
	C355.819427,334.490631 355.819427,328.138275 355.819427,321.329224 
	C359.394867,321.329224 362.678406,321.275879 365.959656,321.339142 
	C376.127808,321.535187 379.847351,327.015259 376.284119,337.126404 
z"/>
<path fill="#FEFAF4" opacity="1.000000" stroke="none" 
	d="
M598.789795,256.535889 
	C595.736389,258.547394 593.016357,260.983643 589.910950,261.665833 
	C586.112366,262.500305 581.990906,261.864594 577.621826,261.864594 
	C577.621826,255.280396 577.621826,248.909744 577.621826,242.163055 
	C582.543640,242.163055 587.369995,241.703506 592.070801,242.275650 
	C598.402954,243.046326 600.819336,248.405075 598.789795,256.535889 
z"/>
<path fill="#FEF9F1" opacity="1.000000" stroke="none" 
	d="
M134.969818,255.045044 
	C137.257599,261.622498 139.425644,267.835541 141.773605,274.564209 
	C134.983994,274.564209 129.212311,274.564209 122.338531,274.564209 
	C125.411545,265.744751 128.336197,257.351074 131.260849,248.957413 
	C131.709854,248.951691 132.158859,248.945969 132.607864,248.940262 
	C133.355270,250.853714 134.102676,252.767181 134.969818,255.045044 
z"/>
</svg>